# xmcd CD database file
#
# Track frame offsets:
#	150
#	12616
#	24758
#	41370
#	50613
#	66039
#	79293
#	93154
#	107543
#	119335
#	134255
#	145535
#
# Disc length: 2177 seconds
#
# Revision: 0
# Processed by: cddbd v1.5.2PL0 Copyright (c) Steve Scherf et al.
# Submitted via: CDex 1.70beta2
#
DISCID=93087f0c
DTITLE=Leona Williams - Grass Roots
DYEAR=2011
DGENRE=Country
TTITLE0=Midnight Blue
TTITLE1=My Heart Has Finally Said Goodbye
TTITLE2=Mama, I've Got to Go to Memphis
TTITLE3=The Legend
TTITLE4=Taste of Life
TTITLE5=Do Wah Ditty
TTITLE6=The Lights of Aberdeen
TTITLE7=Molly and Tenbrooks
TTITLE8=The Good Times are Ready to Come
TTITLE9=Come to See Me Sometime
TTITLE10=When I Dream
TTITLE11=Take This Hammer
EXTD=YEAR: 2011
EXTT0=
EXTT1=
EXTT2=
EXTT3=
EXTT4=
EXTT5=
EXTT6=
EXTT7=
EXTT8=
EXTT9=
EXTT10=
EXTT11=
PLAYORDER=
